# xmcd
# Copyright (C) 1995-1998 Ti Kan
#
# Track frame offsets:
#       150
#       21985
#       43100
#       68550
#       91325
#       111600
#       132825
#       160200
#
# Disc length: 3108 seconds
#
# Revision: 0
# Processed by: cddbd v1.5PL3 Copyright (c) Steve Scherf et al.
# Submitted via: CD-Transfer v1.0
#
DISCID=6a0c2208
DTITLE=Tin Pan Alley - Big Fat Cats
DYEAR=2004
DGENRE=
TTITLE0=Back To A Gloomier Age
TTITLE1=Destiny
TTITLE2=It Ain't Easy
TTITLE3=Don't Give Up
TTITLE4=How Much Time Must Flow
TTITLE5=Don't You Think
TTITLE6=Volcano
TTITLE7=Can't Never Find Your Paradise
EXTD=
EXTT0=
EXTT1=
EXTT2=
EXTT3=
EXTT4=
EXTT5=
EXTT6=
EXTT7=
PLAYORDER=
